# xmcd CD database file
#
# Track frame offsets:
#	150
#	21171
#	27998
#	39394
#	44795
#	57471
#	73660
#	85215
#	96986
#	104648
#	113103
#	127367
#	145956
#	161327
#	176871
#	194120
#	208559
#	218831
#	240561
#	248317
#	256745
#	266668
#	285179
#
# Disc length: 4127 seconds
#
# Revision: 0
# Processed by: cddbd v1.5.1PL2 Copyright (c) Steve Scherf et al.
# Submitted via: CDex 1.51
#
DISCID=5d101d17
DTITLE=Nikolay Rubanov Alexander Ragazanov - Dva Dueta
DYEAR=2001
DGENRE=Jazz
TTITLE0=Duet1 - Instant 1
TTITLE1=Duet1 - Instant 2
TTITLE2=Duet1 - Instant 3
TTITLE3=Duet1 - Instant 4
TTITLE4=Duet1 - Instant 5
TTITLE5=Duet1 - Instant 6
TTITLE6=Duet1 - Instant 7
TTITLE7=Duet1 - Instant 8
TTITLE8=Duet1 - Instant 9
TTITLE9=Duet1 - Instant 10
TTITLE10=Duet1 - Instant 11
TTITLE11=Duet1 - Instant 12
TTITLE12=Duet1 - Instant 13
TTITLE13=Duet1 - Instant 14
TTITLE14=Duet2 - Instant 1
TTITLE15=Duet2 - Instant 2
TTITLE16=Duet2 - Instant 3
TTITLE17=Duet2 - Instant 4
TTITLE18=Duet2 - Instant 5
TTITLE19=Duet2 - Instant 6
TTITLE20=Duet2 - Instant 7
TTITLE21=Duet2 - Instant 8
TTITLE22=Duet2 - Instant 9
EXTD=YEAR: 2001
EXTT0=
EXTT1=
EXTT2=
EXTT3=
EXTT4=
EXTT5=
EXTT6=
EXTT7=
EXTT8=
EXTT9=
EXTT10=
EXTT11=
EXTT12=
EXTT13=
EXTT14=
EXTT15=
EXTT16=
EXTT17=
EXTT18=
EXTT19=
EXTT20=
EXTT21=
EXTT22=
PLAYORDER=
